<?xml version="1.0"?>
<svg xmlns="http://www.w3.org/2000/svg" xmlns:xlink="http://www.w3.org/1999/xlink" version="1.1" id="Capa_1" x="0px" y="0px" width="512px" height="512px" viewBox="0 0 30.103 30.103" style="enable-background:new 0 0 30.103 30.103;" xml:space="preserve"><g><g>
	<path d="M23.281,10.448c0,3.957-0.006,7.917,0.004,11.875c0.002,0.694-0.352,1.146-0.904,1.483   c-0.156,0.095-0.331,0.131-0.518,0.131c-0.524-0.004-1.051-0.002-1.574-0.002c-0.086,0-0.172,0-0.27,0   c-0.012,0.056-0.023,0.099-0.025,0.142c-0.006,0.072-0.002,0.143-0.002,0.213c0,1.277-0.002,2.555,0,3.832   c0.002,0.359-0.072,0.699-0.24,1.018c-0.139,0.264-0.326,0.479-0.566,0.65c-0.613,0.438-1.423,0.412-2.006-0.068   c-0.365-0.301-0.586-0.689-0.671-1.152c-0.028-0.16-0.042-0.328-0.042-0.49c-0.004-1.284-0.002-2.569-0.002-3.856   c0-0.084-0.004-0.168-0.008-0.274c-0.945,0-1.861,0-2.79,0c-0.01,0.047-0.023,0.09-0.025,0.133   c-0.005,0.07-0.002,0.143-0.002,0.213c0,1.285-0.001,2.57,0,3.855c0.001,0.352-0.075,0.684-0.238,0.993   c-0.125,0.24-0.293,0.445-0.508,0.609c-0.625,0.485-1.477,0.467-2.08-0.048c-0.367-0.313-0.581-0.715-0.656-1.188   c-0.024-0.153-0.034-0.312-0.035-0.467c-0.002-1.271,0-2.541-0.002-3.812c0-0.092,0.01-0.186-0.018-0.289   c-0.082-0.004-0.158-0.012-0.234-0.012c-0.525,0-1.051-0.006-1.576,0.004c-0.279,0.004-0.521-0.082-0.744-0.242   c-0.221-0.157-0.398-0.354-0.535-0.586c-0.127-0.213-0.193-0.44-0.191-0.692c0.004-0.688,0.001-1.379,0.001-2.068   c0-3.299,0-6.6,0-9.898c0-0.094,0-0.188,0-0.291c0.054-0.012,0.097-0.028,0.141-0.03c0.062-0.006,0.125-0.002,0.188-0.002   c5.266,0,10.533,0,15.8,0c0.102,0,0.201-0.015,0.312,0.02c0.006,0.049,0.014,0.094,0.018,0.139   C23.283,10.339,23.281,10.393,23.281,10.448z M6.942,9.175C6.875,9.099,6.896,9.027,6.897,8.958   c0.022-0.871,0.214-1.707,0.564-2.505c0.602-1.364,1.55-2.438,2.786-3.26c0.228-0.151,0.47-0.281,0.706-0.42   c0.061-0.035,0.123-0.068,0.207-0.115c-0.047-0.086-0.082-0.155-0.121-0.223c-0.394-0.687-0.789-1.373-1.183-2.06   C9.826,0.32,9.793,0.269,9.769,0.209C9.74,0.135,9.765,0.07,9.832,0.027c0.063-0.043,0.137-0.035,0.188,0.031   c0.043,0.055,0.078,0.117,0.113,0.178c0.397,0.684,0.793,1.369,1.189,2.053c0.043,0.074,0.089,0.146,0.138,0.229   c0.06-0.021,0.111-0.035,0.16-0.058c0.748-0.313,1.526-0.52,2.331-0.619c0.639-0.078,1.28-0.086,1.923-0.026   c0.902,0.082,1.773,0.299,2.609,0.646c0.051,0.021,0.103,0.035,0.159,0.056c0.046-0.072,0.089-0.14,0.128-0.205   c0.399-0.691,0.801-1.384,1.2-2.074c0.032-0.053,0.062-0.108,0.101-0.16c0.059-0.077,0.135-0.096,0.203-0.051   c0.075,0.047,0.098,0.115,0.057,0.201c-0.03,0.063-0.066,0.125-0.104,0.188c-0.386,0.672-0.771,1.344-1.156,2.018   c-0.039,0.066-0.078,0.135-0.117,0.205c0.047,0.078,0.127,0.098,0.191,0.131c0.746,0.396,1.422,0.887,2.014,1.494   c0.957,0.979,1.605,2.133,1.902,3.477c0.09,0.406,0.133,0.818,0.154,1.234c0.004,0.055,0.001,0.107,0.001,0.174   c-0.054,0.01-0.097,0.023-0.142,0.025c-0.062,0.006-0.125,0.002-0.188,0.002c-5.219,0-10.438,0-15.657,0   C7.131,9.175,7.03,9.175,6.942,9.175z M18.16,5.737c0.006,0.414,0.354,0.75,0.773,0.75c0.438,0.002,0.778-0.34,0.775-0.771   c0.01-0.336-0.262-0.772-0.784-0.766C18.434,4.956,18.156,5.36,18.16,5.737z M10.396,5.721c0,0.418,0.338,0.76,0.761,0.766   c0.436,0.008,0.787-0.33,0.79-0.758c0.002-0.426-0.347-0.789-0.771-0.781C10.673,4.956,10.396,5.358,10.396,5.721z M5.876,11.969   c0-0.086,0.003-0.172-0.003-0.258c-0.039-0.609-0.273-1.123-0.762-1.502C4.519,9.754,3.72,9.754,3.125,10.204   c-0.295,0.224-0.503,0.513-0.633,0.857c-0.099,0.26-0.139,0.528-0.139,0.807c0.002,2.412,0.001,4.826,0.001,7.238   c0,0.047-0.001,0.094,0.001,0.141c0.035,0.563,0.238,1.052,0.664,1.433c0.642,0.57,1.568,0.562,2.205-0.012   c0.2-0.181,0.355-0.396,0.465-0.642c0.131-0.291,0.188-0.598,0.188-0.914c-0.002-1.205-0.001-2.412-0.001-3.619   C5.876,14.319,5.876,13.145,5.876,11.969z M27.748,15.489c0-1.184,0-2.365,0-3.549c0-0.094,0.005-0.188-0.004-0.281   c-0.049-0.592-0.285-1.088-0.764-1.451c-0.607-0.467-1.425-0.451-2.021,0.031c-0.321,0.258-0.531,0.592-0.646,0.986   c-0.066,0.227-0.088,0.461-0.088,0.697c0.001,2.373,0.001,4.747,0.001,7.12c0,0.055-0.002,0.108,0.001,0.163   c0.024,0.537,0.2,1.013,0.586,1.396c0.647,0.647,1.635,0.668,2.307,0.045c0.187-0.173,0.332-0.375,0.438-0.604   c0.134-0.289,0.191-0.593,0.19-0.912C27.746,17.917,27.748,16.701,27.748,15.489z" data-original="#000000" class="active-path" data-old_color="#000000" fill="#FFFFFF"/>
</g></g> </svg>
